PathFileType	4	(X/Y/Z)	OpenSim_Sub07_CSBaseline_Gyro.trc
DataRate	CameraRate	NumFrames	NumMarkers	Units	OrigDataRate	OrigDataStartFrame	OrigNumFrames
100	100	16	8	m	100	6815	7788
Frame#	Time	torso_imu_offset_imu	pelvis_imu_offset_imu	tibia_r_imu_offset_imu	femur_r_imu_offset_imu	tibia_l_imu_offset_imu	femur_l_imu_offset_imu	toes_r_imu_offset_imu	toes_l_imu_offset_imu
				X1	Y1	Z1	X2	Y2	Z2	X3	Y3	Z3	X4	Y4	Z4	X5	Y5	Z5	X6	Y6	Z6	X7	Y7	Z7	X8		Y8	Z8	

6815	68.14000000	0.40227978	-0.15162123	-0.04244871	-0.46231038	-0.16601397	-0.19878855	-0.78337134	-1.38855024	-2.32903832	-0.13443067	-0.07139830	1.22967688	-0.78860983	0.24044474	1.41926540	0.24126891	-0.23880555	0.26359000	-0.45346941	-3.48622620	0.38046663	-0.01161295	-0.87915197	-0.13312588
6816	68.15000000	0.38898383	-0.12682450	-0.07527248	-0.45780866	-0.11050518	-0.23198204	-1.07072629	-1.43932588	-2.33042306	-0.11771670	-0.07252853	1.42196165	-1.10318684	0.11274431	1.48416572	0.25506898	-0.33252005	0.46050282	-0.50019297	-4.06837073	0.43454383	0.15590985	-0.67694078	-0.09452949
6817	68.16000000	0.38831911	-0.09870727	-0.10054930	-0.43256992	-0.06079806	-0.25232161	-1.54598169	-1.48726804	-2.31015269	-0.14911581	0.06597000	1.57952917	-1.22572672	-0.02147413	1.41502287	0.00902917	-0.36450218	0.75855533	-0.63620628	-4.67531122	0.41454157	0.52654402	-0.52372216	-0.08193150
6818	68.17000000	0.38703067	-0.07602239	-0.12379392	-0.42062927	-0.00955683	-0.27118138	-1.64394071	-1.44869029	-2.29149058	-0.23162738	0.37135525	1.74376251	-1.35002620	-0.05996781	1.18854841	0.13592277	-0.49315517	0.90942794	-0.35548586	-5.07699213	0.13031334	0.40804147	-0.42228394	-0.13168701
6819	68.18000000	0.38579897	-0.04854811	-0.13927384	-0.40087941	0.00830147	-0.28442734	-1.42032561	-1.32806493	-2.27967601	-0.26965203	0.60966210	1.92367687	-1.28565138	-0.05263043	0.93877999	0.32796684	-0.60331164	0.94980914	-0.61382321	-5.40168448	0.08737455	0.40205728	-0.34267762	-0.17111452
6820	68.19000000	0.38856813	-0.02042507	-0.14799450	-0.36464693	0.03297124	-0.26970772	-1.19947298	-1.23569964	-2.24953745	-0.22531429	0.59892093	2.04114655	-0.89613741	-0.07888726	0.80119656	0.40465665	-0.61262477	0.90272470	-1.10243774	-5.94086177	0.28199751	0.20855862	-0.25145243	-0.13992657
6821	68.20000000	0.39313302	0.00244218	-0.15905328	-0.32176154	0.05590231	-0.23797157	-0.99866606	-1.15302383	-2.26042542	-0.35873044	0.43980535	2.13771236	-0.43766481	-0.11448149	0.75145555	0.36044873	-0.60393015	0.85006385	-1.27156098	-6.21075908	0.38154594	0.16384132	-0.14500686	-0.09665694
6822	68.21000000	0.39578459	0.02619494	-0.15730141	-0.28615214	0.06755680	-0.18418520	-0.98167042	-1.02279712	-2.19769947	-0.54327618	0.24321174	2.27621145	0.03271512	-0.09914363	0.73582383	0.12866746	-0.60404693	0.79583259	-0.76126815	-5.89857010	0.04544625	0.00071721	-0.06445774	-0.08726303
6823	68.22000000	0.38244160	0.04783413	-0.15577768	-0.24808673	0.06808771	-0.12388203	-0.98618106	-0.94075236	-1.95162507	-0.53939195	0.22490422	2.40389557	0.37830125	-0.11038475	0.78487210	-0.24138825	-0.59953160	0.72927728	0.42107798	-5.68295508	-0.61870731	-0.08395048	-0.03255590	-0.06160729
6824	68.23000000	0.35898455	0.06766059	-0.14468191	-0.20833457	0.07350221	-0.06046545	-0.84350841	-0.85383458	-1.70226108	-0.60229710	0.27620665	2.47172213	0.54967481	-0.12370827	0.79758751	-0.51741931	-0.59710275	0.66848594	0.67885608	-5.36089129	-0.93703253	-0.07200123	-0.07793489	-0.03658963
6825	68.24000000	0.34281253	0.09021946	-0.14017819	-0.16681470	0.08308645	-0.00354941	-0.61372358	-0.69680134	-1.33982084	-0.80461544	0.27235026	2.48840722	0.67872748	-0.10260707	0.76066676	-0.64767647	-0.57017687	0.67001824	0.83329652	-5.21295352	-1.10246346	-0.08079429	-0.07707367	-0.01283338
6826	68.25000000	0.33290347	0.11088736	-0.13495111	-0.12889426	0.08854753	0.04833471	-0.41750385	-0.46314248	-0.91567678	-0.95375175	0.20737784	2.46362406	0.76495473	-0.08895302	0.70279927	-0.59178752	-0.52337802	0.69075436	0.81994203	-5.36168088	-1.16186968	-0.12082707	-0.08413947	0.00334245
6827	68.26000000	0.32835606	0.13152134	-0.11900821	-0.10244976	0.08884615	0.09286834	-0.44614683	-0.21865398	-0.48651133	-0.98191655	0.07405611	2.37347170	0.62012272	-0.05031237	0.65270037	-0.35463494	-0.49092310	0.70309085	0.79067023	-5.73295802	-1.11003302	-0.16488969	-0.10674357	0.02679532
6828	68.27000000	0.32606655	0.14816785	-0.10824766	-0.08169461	0.09261636	0.11564889	-0.62022251	-0.04771552	-0.13247746	-0.98478926	-0.13315287	2.22354446	0.24641042	-0.02530395	0.60428693	-0.05660884	-0.44512625	0.71146733	0.88057993	-6.14520084	-1.14333329	-0.17229488	-0.11621748	0.04223949
6829	68.28000000	0.31796148	0.15460200	-0.09266546	-0.07486772	0.09848600	0.13957438	-0.51417725	0.03740852	-0.00009335	-0.98499940	-0.39256506	2.07815107	-0.11183878	-0.01934619	0.54710179	0.21909834	-0.40141103	0.71415718	1.08325790	-6.22304548	-1.30327323	-0.23170314	-0.15818777	0.07456242
6830	68.29000000	0.30914789	0.15405893	-0.07694694	-0.07756101	0.09682515	0.16350740	-0.14686795	0.08659708	0.00643539	-0.86173883	-0.63310484	1.96052067	-0.31258419	-0.00375476	0.49470280	0.47986934	-0.37725463	0.70431297	0.54469810	-5.59558201	-1.45342048	-0.30310396	-0.20146521	0.10164188
